# xmcd
#
# Track frame offsets: 
#        150
#        13947
#        25682
#        38885
#        50895
#        62875
#        75325
#        87620
#        99737
#        112700
#        124260
#        135982
#        147897
#        160470
#        173405
#        186187
#        196470
#        208984
#        222227
#        235567
#
# Disc length: 3325 seconds
#
# Revision: 2
# Processed by: cddbd v1.5.2PL0 Copyright (c) Steve Scherf et al.
# Submitted via: ExactAudioCopyFreeDBPlugin 1.0
#
DISCID=190cfb14
DTITLE=Bob Wills And His Texas Playboys - The Essential Bob Wills (193
DTITLE=5 to 1947)
DYEAR=1992
DGENRE=Country
TTITLE0=Osage Stomp
TTITLE1=Steel Guitar Rag
TTITLE2=Right Or Wrong
TTITLE3=Time Changes Everything
TTITLE4=New San Antonio Rose
TTITLE5=Bob Wills Special
TTITLE6=Twin Guitar Special
TTITLE7=Take Me Back To Tulsa
TTITLE8=A Maiden's Prayer
TTITLE9=Home In San Antone
TTITLE10=Miss Molly
TTITLE11=Texas Playboy Rag
TTITLE12=Stay A Little Longer
TTITLE13=Roly Poly
TTITLE14=New Spanish Two Step
TTITLE15=Sugar Moon
TTITLE16=Brain Cloudy Blues
TTITLE17=Fat Boy Rag
TTITLE18=Deep Water
TTITLE19=Bob Wills Boogie
EXTD=Columbia/Legacy CK48958
EXTT0=
EXTT1=
EXTT2=
EXTT3=
EXTT4=
EXTT5=
EXTT6=
EXTT7=
EXTT8=
EXTT9=
EXTT10=
EXTT11=
EXTT12=
EXTT13=
EXTT14=
EXTT15=
EXTT16=
EXTT17=
EXTT18=
EXTT19=
PLAYORDER=
